<svg xmlns="http://www.w3.org/2000/svg" version="1.1" xmlns:xlink="http://www.w3.org/1999/xlink" xmlns:svgjs="http://svgjs.com/svgjs" height="263.97034606933596" width="263.77201309204105"><defs id="SvgjsDefs3727"></defs><g id="SvgjsG3728" rel="mainfill" name="main_text" xmlns:name="main_text" transform="translate(62.086007130146044,-101.09482116699218)" fill="#ffffff"><path d="M11.00 236.65C9.84 237.03 9.21 237.31 8.13 237.31C6.14 237.31 5.11 236.60 5.11 234.36L5.11 233.08C5.11 230.86 6.14 230.11 8.13 230.11C9.01 230.11 10.52 230.58 11.00 230.81L11.56 227.94C10.25 227.41 8.33 227.14 7.33 227.14C3.68 227.14 0.91 229.28 0.91 232.77L0.91 234.66C0.91 238.51 3.68 240.23 7.33 240.23C8.31 240.23 10.20 240 11.56 239.50ZM17.25 240L17.25 221.12L13.22 221.12L13.22 240ZM19.86 227.41L19.86 236.48C19.86 238.67 20.95 240.25 23.44 240.25C25.53 240.25 27.49 239.55 28.62 239.02L28.62 240L32.65 240L32.65 227.41L28.62 227.41L28.62 236.48C28.07 236.90 27.01 237.38 25.88 237.38C24.67 237.38 23.89 236.83 23.89 235.17L23.89 227.41ZM35.27 222.38L35.27 240L39.30 240L39.30 239.14C40.13 239.55 41.31 240.10 42.90 240.10C46.45 240.10 47.98 238.67 47.98 233.71C47.98 229.30 46.42 227.19 42.90 227.19C41.31 227.19 40.15 227.76 39.30 228.27L39.30 222.38ZM41.16 237.56C40.28 237.56 39.70 237.26 39.30 237.05L39.30 230.51C39.70 230.33 40.53 230.01 41.16 230.01C42.65 230.01 43.81 230.81 43.81 233.71C43.81 236.68 42.62 237.56 41.16 237.56ZM54.08 245.04L54.08 239.14C54.98 239.52 55.99 240.10 57.88 240.10C61.05 240.10 62.76 238.44 62.76 233.71C62.76 228.90 60.97 227.06 57.88 227.06C55.99 227.06 54.71 227.87 54.08 228.27L54.08 227.41L50.05 227.41L50.05 245.04ZM55.84 230.01C57.40 230.01 58.71 230.74 58.71 233.71C58.71 236.63 57.48 237.38 56.17 237.38C55.26 237.38 54.58 237.10 54.08 236.90L54.08 230.51C54.48 230.31 55.06 230.01 55.84 230.01ZM73.51 227.16L72.45 227.16C70.89 227.16 69.66 228.34 69.01 229.25L69.01 227.41L64.98 227.41L64.98 240L69.01 240L69.01 233.71C69.01 232.22 70.54 230.46 72.23 230.46L73.89 230.46ZM75.55 227.41L75.55 240L79.58 240L79.58 227.41ZM75.55 222.38L75.55 225.32L79.58 225.32L79.58 222.38ZM94.99 240L94.99 231.87C94.99 228.67 93.98 227.16 91.21 227.16C89.42 227.16 87.33 227.84 86.23 228.39L86.23 227.41L82.20 227.41L82.20 240L86.23 240L86.23 230.94C86.75 230.53 87.79 230.03 88.79 230.03C90.33 230.03 90.96 230.58 90.96 232.25L90.96 240ZM96.65 230.13L98.41 230.13L98.41 236.40C98.41 239.24 99.77 240.25 102.87 240.25C104.50 240.25 105.84 239.92 106.47 239.75L105.99 237.26C105.26 237.43 104.75 237.51 103.87 237.51C102.94 237.51 102.44 236.95 102.44 235.67L102.44 230.13L105.96 230.13L105.96 227.41L102.44 227.41L102.44 223.89L98.41 224.29L98.41 227.41L96.65 227.41ZM107.98 235.87L107.98 240L112.51 240L112.51 235.87ZM123.86 227.16L122.81 227.16C121.24 227.16 120.01 228.34 119.36 229.25L119.36 227.41L115.33 227.41L115.33 240L119.36 240L119.36 233.71C119.36 232.22 120.89 230.46 122.58 230.46L124.24 230.46ZM125.90 227.41L125.90 236.48C125.90 238.67 126.98 240.25 129.48 240.25C131.57 240.25 133.53 239.55 134.66 239.02L134.66 240L138.69 240L138.69 227.41L134.66 227.41L134.66 236.48C134.11 236.90 133.05 237.38 131.92 237.38C130.71 237.38 129.93 236.83 129.93 235.17L129.93 227.41Z" fill="#000000" style="fill: #000000;"></path></g><g id="SvgjsG3729" transform="translate(0.0028494081925600767,0) scale(2.1)" rel="mainfill" name="outline_container" xmlns:name="outlineContainer_mainfill" fill="#000000"><g fill="#000000"><path d="M62.9 0a11 11 0 0 0-3.1.5l.3 1L62 1h.9V0zm-8.6 4l-2 2 .7.7h.3l.2-.2.2-.2.2-.2.2-.2.2-.2.2-.2.2-.2.2-.2h.1L54.3 4zM48 10.3l-2 2 .7.7h.3l.2-.2.2-.2.2-.2.2-.2.2-.2.2-.2.2-.2.2-.2h.3l-.7-.7zm-6.3 6.3l-2.1 2.1.7.7h.1l.2-.2.3-.3.4-.4.4-.4.3-.3.2-.2h.1l-.7-.7zm-6.3 6.3L33.3 25l.7.7h.1l.2-.2.3-.3.4-.4.4-.4.3-.3.2-.2h.1l-.7-.7zm-6.3 6.3L27 31.3l.7.7h.1l.2-.2.3-.3.4-.4.4-.4.3-.3.2-.2h.1l-.7-.7zm-6.3 6.3l-2.1 2.1.7.7h.3l.2-.2.2-.2.2-.2.2-.2.2-.2.2-.2.2-.2.2-.2h.3l-.7-.7zm-6.3 6.3l-2.1 2.1.7.7h.3l.2-.2.2-.2.2-.2.2-.2.2-.2.2-.2.2-.2.2-.2h.3l-.7-.7zM10.3 48l-2.1 2.1.7.7H9l.2-.2.3-.3.4-.4.4-.4.3-.3.2-.2h.2l-.7-.7zM4 54.3l-.8.8-1.3 1.5.8.6.8-1h1.2L4 54.3zm-4 8.5A11 11 0 0 0 .4 66l1-.3a10 10 0 0 1-.4-2.1v-.5zm4.6 7.8l-.7.7L6 73.4l.7-.7-2.1-2.1zm6.3 6.3l-.7.7 2.1 2.1.7-.7-2.1-2.1zm6.3 6.3l-.7.7 2.1 2.1.7-.7-2.1-2.1zm6.3 6.3l-.7.7 2.1 2.1.7-.7-2.1-2.1zm6.3 6.3l-.7.7 2.1 2.1.7-.7-2.1-2.1zm6.3 6.3l-.7.7 2.1 2.1.7-.7-2.1-2.1zm6.3 6.3l-.7.7 2.1 2.1.7-.7-2.1-2.1zm6.3 6.3l-.7.7 2.1 2.1.7-.7-2.1-2.1zM55 121l-.7.7.8.8 1.5 1.2.6-.8H57l-.9-.8h-.3L55 121zm10.6 3.3l-2.2.4h-.7v1h.1a11 11 0 0 0 3-.4l-.3-1zm7-5.3l-2.1 2.1.7.7 2.1-2.1-.7-.7zm6.3-6.3l-2.1 2.1.7.7 2.1-2.1-.7-.7zm6.3-6.3l-2.1 2.1.7.7 2.1-2.1-.7-.7zm6.3-6.3l-2.1 2.1.7.7 2.1-2.1-.7-.7zm6.3-6.3l-2.1 2.1.7.7 2.1-2.1-.7-.7zm6.3-6.3l-2.1 2.1.7.7 2.1-2.1-.7-.7zm6.3-6.3l-2.1 2.1.7.7 2.1-2.1-.7-.7zm6.3-6.3l-2.1 2.1.7.7 2.1-2.1-.7-.7zm6.2-6.4v.2h-1l-.8.8.7.7.8-.8 1.2-1.4-.8-.6zm2.4-8.8l-1 .3a10 10 0 0 1 .3 1.8h1a11 11 0 0 0-.4-3.2zm-5.5-7.5l-.7.7h.1l.2.2.3.3.4.4.4.4.3.3.2.2h.1l.7-.7-2.1-2.1zm-6.3-6.3l-.7.7h.1l.2.2.3.3.4.4.4.4.3.3.2.2h.1l.7-.7-2.1-2.1zm-6.3-6.3l-.7.7h.3l.2.2.2.2.2.2.2.2.2.2.2.2.2.2.2.2h.3l.7-.7-2.1-2.1zm-6.3-6.3l-.7.7h.3l.2.2.2.2.2.2.2.2.2.2.2.2.2.2.2.2h.3l.7-.7-2.1-2.1zM94.6 27l-.7.7h.3l.2.2.2.2.2.2.2.2.2.2.2.2.2.2.2.2h.2l.7-.7-2.1-2.1zm-6.3-6.3l-.7.7h.1l.2.2.3.3.4.4.4.4.3.3.2.2h.1l.7-.7-2.1-2.1zM82 14.6l-.7.7h.1l.2.2.3.3.4.4.4.4.3.3.2.2h.1l.7-.7-2-1.8zm-6.2-6.3L75 9h.3l.2.2.2.2.2.2.2.2.2.2.2.2.2.2.2.2h.3l.7-.7-2.1-1.6zM69.2 2l-.6.8 1 .8h.5l.2.2.2.2h.3l.7-.7-.9-.9-1.4-.4zm-6.3-2v1h.1V0zM62.9 10.9a5 5 0 0 1 3.5 1.5l46.9 46.9a5 5 0 0 1 0 7.1l-46.9 46.9a5 5 0 0 1-7.1 0L12.4 66.4a5 5 0 0 1 0-7.1l46.9-46.9a5 5 0 0 1 3.5-1.5m0-4a8.9 8.9 0 0 0-6.4 2.6l-46.8 47a9 9 0 0 0 0 12.7l46.9 46.9a9 9 0 0 0 12.7 0l46.9-46.9a9 9 0 0 0 0-12.7L69.2 9.6A8.9 8.9 0 0 0 62.8 7z" fill="#000000" style="fill: #000000;"></path></g></g></svg>